# xmcd
# 
# Track frame offsets:
#     150
#     17945
#     34437
#     53265
#     70538
#     100335
#     130280
#     146908
#     164708
#     180360
#     197810
#     214670
#     234967
#     243015
#     257750
#     273088
# 
# Disc length: 3870
# 
# Revision: 0
# Processed by: cddbd v1.5.2PL0 Copyright (c) Steve Scherf et al.
# Submitted via: BonkEnc v1.0.8
# 
DISCID=de0f1c10
DTITLE=Janis Joplin - The Essential Janis Joplin - CD 2
DYEAR=2003
DGENRE=Rock
TTITLE0=Try (Just A Little Bit Harder)
TTITLE1=Maybe
TTITLE2=One Good Man
TTITLE3=Little Girl Blue
TTITLE4=Work Me, Lord
TTITLE5=Tell Mama (Live)
TTITLE6=Mover Over
TTITLE7=Cry Baby
TTITLE8=A Woman Left Lonely
TTITLE9=Half Moon
TTITLE10=My Baby
TTITLE11=Me And Bobby McGee
TTITLE12=Mercedes Benz
TTITLE13=Trust Me
TTITLE14=Get It While You Can
TTITLE15=Bonus Track: Mercedes Benz - Remix
EXTD=
EXTT0=
EXTT1=
EXTT2=
EXTT3=
EXTT4=
EXTT5=
EXTT6=
EXTT7=
EXTT8=
EXTT9=
EXTT10=
EXTT11=
EXTT12=
EXTT13=
EXTT14=
EXTT15=
PLAYORDER=
